{
    "asset" : {
        "generator" : "Khronos glTF Blender I/O v1.2.75",
        "version" : "2.0"
    },
    "scene" : 0,
    "scenes" : [
        {
            "name" : "Scene",
            "nodes" : [
                11
            ]
        }
    ],
    "nodes" : [
        {
            "mesh" : 0,
            "name" : "Object001_Material #33_0"
        },
        {
            "mesh" : 1,
            "name" : "Object001_Material #33_0.001",
            "rotation" : [
                0,
                0,
                0.1534896194934845,
                0.9881502985954285
            ],
            "translation" : [
                -35.0613899230957,
                -69.28075408935547,
                18.235828399658203
            ]
        },
        {
            "mesh" : 2,
            "name" : "Object001_Material #33_0.002",
            "translation" : [
                34.32015609741211,
                59.57185363769531,
                18.235836029052734
            ]
        },
        {
            "mesh" : 3,
            "name" : "Object001_Material #33_0.003",
            "translation" : [
                -34.320159912109375,
                59.57184600830078,
                18.23583221435547
            ]
        },
        {
            "mesh" : 4,
            "name" : "Object001_Material #33_0.004",
            "rotation" : [
                0,
                0,
                0.15057362616062164,
                0.9885988235473633
            ],
            "translation" : [
                34.47194290161133,
                -67.1434555053711,
                18.235801696777344
            ]
        },
        {
            "children" : [
                0,
                1,
                2,
                3,
                4
            ],
            "name" : "Object001",
            "rotation" : [
                -0.7071068286895752,
                0,
                0,
                0.7071068286895752
            ]
        },
        {
            "mesh" : 5,
            "name" : "Object002_Material #34_0"
        },
        {
            "children" : [
                6
            ],
            "name" : "Object002",
            "rotation" : [
                -0.7071068286895752,
                0,
                0,
                0.7071068286895752
            ]
        },
        {
            "children" : [
                5,
                7
            ],
            "name" : "RootNode"
        },
        {
            "children" : [
                8
            ],
            "name" : "gmc.FBX",
            "rotation" : [
                0.7071068286895752,
                0,
                0,
                0.7071068286895752
            ]
        },
        {
            "children" : [
                9
            ],
            "name" : "RootNode (model correction matrix)"
        },
        {
            "children" : [
                10
            ],
            "name" : "RootNode (gltf orientation matrix)",
            "rotation" : [
                -0.7071067690849304,
                0,
                0,
                0.7071067690849304
            ]
        }
    ],
    "materials" : [
        {
            "doubleSided" : true,
            "emissiveFactor" : [
                1,
                1,
                1
            ],
            "emissiveTexture" : {
                "index" : 0,
                "texCoord" : 0
            },
            "name" : "Material_33",
            "normalTexture" : {
                "index" : 1,
                "texCoord" : 0
            },
            "occlusionTexture" : {
                "index" : 2,
                "texCoord" : 0
            },
            "pbrMetallicRoughness" : {
                "baseColorTexture" : {
                    "index" : 3,
                    "texCoord" : 0
                },
                "metallicRoughnessTexture" : {
                    "index" : 2,
                    "texCoord" : 0
                }
            }
        },
        {
            "alphaMode" : "BLEND",
            "doubleSided" : true,
            "emissiveFactor" : [
                0,
                0,
                0
            ],
            "name" : "Material_34",
            "normalTexture" : {
                "index" : 4,
                "texCoord" : 0
            },
            "occlusionTexture" : {
                "index" : 5,
                "texCoord" : 0
            },
            "pbrMetallicRoughness" : {
                "baseColorTexture" : {
                    "index" : 6,
                    "texCoord" : 0
                },
                "metallicRoughnessTexture" : {
                    "index" : 5,
                    "texCoord" : 0
                }
            }
        }
    ],
    "meshes" : [
        {
            "name" : "Object001_Material #33_0",
            "primitives" : [
                {
                    "attributes" : {
                        "POSITION" : 0,
                        "NORMAL" : 1,
                        "TEXCOORD_0" : 2
                    },
                    "indices" : 3,
                    "material" : 0
                }
            ]
        },
        {
            "name" : "Object001_Material #33_0.014",
            "primitives" : [
                {
                    "attributes" : {
                        "POSITION" : 4,
                        "NORMAL" : 5,
                        "TEXCOORD_0" : 6
                    },
                    "indices" : 7,
                    "material" : 0
                }
            ]
        },
        {
            "name" : "Object001_Material #33_0.002",
            "primitives" : [
                {
                    "attributes" : {
                        "POSITION" : 8,
                        "NORMAL" : 9,
                        "TEXCOORD_0" : 10
                    },
                    "indices" : 11,
                    "material" : 0
                }
            ]
        },
        {
            "name" : "Object001_Material #33_0.010",
            "primitives" : [
                {
                    "attributes" : {
                        "POSITION" : 12,
                        "NORMAL" : 13,
                        "TEXCOORD_0" : 14
                    },
                    "indices" : 15,
                    "material" : 0
                }
            ]
        },
        {
            "name" : "Object001_Material #33_0.020",
            "primitives" : [
                {
                    "attributes" : {
                        "POSITION" : 16,
                        "NORMAL" : 17,
                        "TEXCOORD_0" : 18
                    },
                    "indices" : 19,
                    "material" : 0
                }
            ]
        },
        {
            "name" : "Object002_Material #34_0",
            "primitives" : [
                {
                    "attributes" : {
                        "POSITION" : 20,
                        "NORMAL" : 21,
                        "TEXCOORD_0" : 22
                    },
                    "indices" : 23,
                    "material" : 1
                }
            ]
        }
    ],
    "textures" : [
        {
            "source" : 0
        },
        {
            "source" : 1
        },
        {
            "source" : 2
        },
        {
            "source" : 3
        },
        {
            "source" : 4
        },
        {
            "source" : 5
        },
        {
            "source" : 6
        }
    ],
    "images" : [
        {
            "mimeType" : "image/png",
            "name" : "Material_33_emissive",
            "uri" : "Material_33_emissive.png"
        },
        {
            "mimeType" : "image/png",
            "name" : "Material_33_normal",
            "uri" : "Material_33_normal.png"
        },
        {
            "mimeType" : "image/png",
            "name" : "Material_33_metallicRoughness",
            "uri" : "Material_33_metallicRoughness.png"
        },
        {
            "mimeType" : "image/png",
            "name" : "Material_33_baseColor",
            "uri" : "Material_33_baseColor.png"
        },
        {
            "mimeType" : "image/png",
            "name" : "Material_34_normal",
            "uri" : "Material_34_normal.png"
        },
        {
            "mimeType" : "image/png",
            "name" : "Material_34_metallicRoughness",
            "uri" : "Material_34_metallicRoughness.png"
        },
        {
            "mimeType" : "image/png",
            "name" : "Material_34_baseColor",
            "uri" : "Material_34_baseColor.png"
        }
    ],
    "accessors" : [
        {
            "bufferView" : 0,
            "componentType" : 5126,
            "count" : 3126,
            "max" : [
                44.907814025878906,
                110.69435119628906,
                74.21553802490234
            ],
            "min" : [
                -44.907814025878906,
                -100.74676513671875,
                12.044599533081055
            ],
            "type" : "VEC3"
        },
        {
            "bufferView" : 1,
            "componentType" : 5126,
            "count" : 3126,
            "type" : "VEC3"
        },
        {
            "bufferView" : 2,
            "componentType" : 5126,
            "count" : 3126,
            "type" : "VEC2"
        },
        {
            "bufferView" : 3,
            "componentType" : 5123,
            "count" : 8355,
            "type" : "SCALAR"
        },
        {
            "bufferView" : 4,
            "componentType" : 5126,
            "count" : 404,
            "max" : [
                9.557403564453125,
                16.22220802307129,
                15.283358573913574
            ],
            "min" : [
                -9.668529510498047,
                -16.379175186157227,
                -15.283358573913574
            ],
            "type" : "VEC3"
        },
        {
            "bufferView" : 5,
            "componentType" : 5126,
            "count" : 404,
            "type" : "VEC3"
        },
        {
            "bufferView" : 6,
            "componentType" : 5126,
            "count" : 404,
            "type" : "VEC2"
        },
        {
            "bufferView" : 7,
            "componentType" : 5123,
            "count" : 852,
            "type" : "SCALAR"
        },
        {
            "bufferView" : 8,
            "componentType" : 5126,
            "count" : 388,
            "max" : [
                6.462960720062256,
                15.51912784576416,
                15.283354759216309
            ],
            "min" : [
                -5.262587070465088,
                -15.519125938415527,
                -15.283360481262207
            ],
            "type" : "VEC3"
        },
        {
            "bufferView" : 9,
            "componentType" : 5126,
            "count" : 388,
            "type" : "VEC3"
        },
        {
            "bufferView" : 10,
            "componentType" : 5126,
            "count" : 388,
            "type" : "VEC2"
        },
        {
            "bufferView" : 11,
            "componentType" : 5123,
            "count" : 852,
            "type" : "SCALAR"
        },
        {
            "bufferView" : 12,
            "componentType" : 5126,
            "count" : 374,
            "max" : [
                5.262580871582031,
                15.519134521484375,
                15.28335952758789
            ],
            "min" : [
                -6.462963104248047,
                -15.519119262695312,
                -15.283355712890625
            ],
            "type" : "VEC3"
        },
        {
            "bufferView" : 13,
            "componentType" : 5126,
            "count" : 374,
            "type" : "VEC3"
        },
        {
            "bufferView" : 14,
            "componentType" : 5126,
            "count" : 374,
            "type" : "VEC2"
        },
        {
            "bufferView" : 15,
            "componentType" : 5123,
            "count" : 852,
            "type" : "SCALAR"
        },
        {
            "bufferView" : 16,
            "componentType" : 5126,
            "count" : 408,
            "max" : [
                9.6685791015625,
                16.379112243652344,
                15.28338623046875
            ],
            "min" : [
                -9.557348251342773,
                -16.222274780273438,
                -15.283330917358398
            ],
            "type" : "VEC3"
        },
        {
            "bufferView" : 17,
            "componentType" : 5126,
            "count" : 408,
            "type" : "VEC3"
        },
        {
            "bufferView" : 18,
            "componentType" : 5126,
            "count" : 408,
            "type" : "VEC2"
        },
        {
            "bufferView" : 19,
            "componentType" : 5123,
            "count" : 852,
            "type" : "SCALAR"
        },
        {
            "bufferView" : 20,
            "componentType" : 5126,
            "count" : 66,
            "max" : [
                36.4100456237793,
                11.713659286499023,
                71.55856323242188
            ],
            "min" : [
                -36.4100456237793,
                -44.25879669189453,
                51.25664520263672
            ],
            "type" : "VEC3"
        },
        {
            "bufferView" : 21,
            "componentType" : 5126,
            "count" : 66,
            "type" : "VEC3"
        },
        {
            "bufferView" : 22,
            "componentType" : 5126,
            "count" : 66,
            "type" : "VEC2"
        },
        {
            "bufferView" : 23,
            "componentType" : 5123,
            "count" : 150,
            "type" : "SCALAR"
        }
    ],
    "bufferViews" : [
        {
            "buffer" : 0,
            "byteLength" : 37512,
            "byteOffset" : 0
        },
        {
            "buffer" : 0,
            "byteLength" : 37512,
            "byteOffset" : 37512
        },
        {
            "buffer" : 0,
            "byteLength" : 25008,
            "byteOffset" : 75024
        },
        {
            "buffer" : 0,
            "byteLength" : 16710,
            "byteOffset" : 100032
        },
        {
            "buffer" : 0,
            "byteLength" : 4848,
            "byteOffset" : 116744
        },
        {
            "buffer" : 0,
            "byteLength" : 4848,
            "byteOffset" : 121592
        },
        {
            "buffer" : 0,
            "byteLength" : 3232,
            "byteOffset" : 126440
        },
        {
            "buffer" : 0,
            "byteLength" : 1704,
            "byteOffset" : 129672
        },
        {
            "buffer" : 0,
            "byteLength" : 4656,
            "byteOffset" : 131376
        },
        {
            "buffer" : 0,
            "byteLength" : 4656,
            "byteOffset" : 136032
        },
        {
            "buffer" : 0,
            "byteLength" : 3104,
            "byteOffset" : 140688
        },
        {
            "buffer" : 0,
            "byteLength" : 1704,
            "byteOffset" : 143792
        },
        {
            "buffer" : 0,
            "byteLength" : 4488,
            "byteOffset" : 145496
        },
        {
            "buffer" : 0,
            "byteLength" : 4488,
            "byteOffset" : 149984
        },
        {
            "buffer" : 0,
            "byteLength" : 2992,
            "byteOffset" : 154472
        },
        {
            "buffer" : 0,
            "byteLength" : 1704,
            "byteOffset" : 157464
        },
        {
            "buffer" : 0,
            "byteLength" : 4896,
            "byteOffset" : 159168
        },
        {
            "buffer" : 0,
            "byteLength" : 4896,
            "byteOffset" : 164064
        },
        {
            "buffer" : 0,
            "byteLength" : 3264,
            "byteOffset" : 168960
        },
        {
            "buffer" : 0,
            "byteLength" : 1704,
            "byteOffset" : 172224
        },
        {
            "buffer" : 0,
            "byteLength" : 792,
            "byteOffset" : 173928
        },
        {
            "buffer" : 0,
            "byteLength" : 792,
            "byteOffset" : 174720
        },
        {
            "buffer" : 0,
            "byteLength" : 528,
            "byteOffset" : 175512
        },
        {
            "buffer" : 0,
            "byteLength" : 300,
            "byteOffset" : 176040
        }
    ],
    "buffers" : [
        {
            "byteLength" : 176340,
            "uri" : "truck.bin"
        }
    ]
}
